<mxfile host="app.diagrams.net" modified="2024-05-14T23:02:59.649Z" agent="Mozilla/5.0 (Windows NT 10.0; Win64; x64) AppleWebKit/537.36 (KHTML, like Gecko) Chrome/124.0.0.0 Safari/537.36" version="24.4.0" etag="KQv1KYYlY9PT2viZWu2m" type="github">
  <diagram name="PÃ¡gina-1" id="j-1k1Z8YHWFTo3YplxOS">
    <mxGraphModel>
      <root>
        <mxCell id="0" />
        <mxCell id="1" parent="0" />
      </root>
    </mxGraphModel>
  </diagram>
</mxfile>
